<?xml version="1.0" standalone="no"?>
<!DOCTYPE svg PUBLIC "-//W3C//DTD SVG 20010904//EN"
 "http://www.w3.org/TR/2001/REC-SVG-20010904/DTD/svg10.dtd">
<svg version="1.0" xmlns="http://www.w3.org/2000/svg"
 width="50pt" height="50pt" viewBox="0 0 1024.000000 984.000000"
 preserveAspectRatio="xMidYMid meet">

<g transform="translate(0.000000,984.000000) scale(0.100000,-0.100000)"
fill="#07b091" stroke="none">
<path d="M2535 8026 c-109 -18 -213 -48 -315 -90 -313 -132 -569 -421 -664
-748 -52 -182 -51 -123 -51 -2028 l0 -1775 23 -105 c43 -194 115 -346 237
-497 146 -182 345 -321 551 -386 151 -48 236 -57 531 -57 l272 0 3 -567 3
-568 28 -57 c47 -96 134 -148 246 -148 105 0 97 -6 680 490 146 124 432 366
635 537 l371 313 1425 0 c1213 0 1439 2 1517 15 237 39 433 138 617 314 183
176 299 387 347 634 18 94 19 165 19 1871 0 1947 3 1850 -60 2038 -94 281
-295 530 -537 667 -95 53 -239 109 -347 134 l-91 22 -2680 1 c-2120 2 -2697 0
-2760 -10z m5434 -541 c168 -40 358 -191 433 -345 79 -163 73 8 73 -1965 0
-1677 -1 -1763 -18 -1825 -28 -97 -85 -197 -155 -272 -81 -86 -154 -134 -262
-172 l-85 -31 -1520 -5 -1520 -5 -40 -22 c-38 -20 -105 -75 -520 -428 -99 -84
-296 -249 -437 -368 l-257 -216 -3 417 c-3 459 -2 450 -68 526 -18 20 -54 49
-79 64 l-46 27 -450 5 -450 5 -86 31 c-172 61 -295 170 -371 329 -72 151 -68
29 -68 1945 0 1684 1 1727 20 1807 58 242 233 425 474 494 57 17 214 18 2716
18 2331 1 2663 -1 2719 -14z"/>
</g>
</svg>
