<?xml version="1.0" standalone="no"?>
<!DOCTYPE svg PUBLIC "-//W3C//DTD SVG 20010904//EN"
 "http://www.w3.org/TR/2001/REC-SVG-20010904/DTD/svg10.dtd">
<svg version="1.0" xmlns="http://www.w3.org/2000/svg"
 width="50pt" height="50pt" viewBox="0 0 1024.000000 1024.000000"
 preserveAspectRatio="xMidYMid meet">

<g transform="translate(0.000000,1024.000000) scale(0.100000,-0.100000)"
fill="#3d3d3d" stroke="none">
<path d="M3554 8665 c-389 -84 -688 -457 -686 -855 1 -215 80 -390 256 -565
67 -66 174 -149 272 -212 15 -9 -154 -12 -763 -12 l-783 -1 0 -880 0 -880 180
0 180 0 2 -1847 3 -1848 2905 0 2905 0 3 1848 2 1847 180 0 180 0 0 880 0 880
-781 2 -781 3 103 70 c197 132 339 303 402 483 39 112 49 287 23 404 -64 285
-265 527 -531 637 -104 43 -190 61 -307 61 -212 0 -412 -74 -618 -229 -282
-212 -540 -560 -739 -1000 l-42 -94 -43 95 c-310 689 -755 1137 -1210 1217
-80 15 -237 12 -312 -4z m3035 -360 c106 -14 251 -116 321 -225 97 -151 110
-307 37 -445 -120 -227 -536 -450 -1017 -545 -206 -40 -530 -75 -530 -56 0 15
88 229 136 334 149 320 410 659 629 814 113 81 286 144 360 132 11 -1 40 -5
64 -9z m-2706 -19 c284 -101 626 -492 842 -965 63 -137 121 -289 114 -295 -5
-4 -263 20 -358 34 -479 72 -880 238 -1096 455 -137 137 -172 274 -114 444 52
150 171 274 314 328 86 31 206 31 298 -1z m1045 -2133 l2 -503 -1355 0 -1355
0 0 498 c0 274 3 502 7 506 4 4 613 6 1353 4 l1345 -3 3 -502z m3087 0 c0
-277 -3 -503 -7 -503 -5 0 -613 0 -1353 0 l-1345 0 0 498 c0 274 3 501 6 505
4 3 612 5 1353 4 l1346 -2 0 -502z m-3085 -2553 l0 -1660 -1175 0 -1175 0 0
1660 0 1660 1175 0 1175 0 0 -1660z m2730 0 l0 -1660 -1175 0 -1175 0 0 1660
0 1660 1175 0 1175 0 0 -1660z"/>
</g>
</svg>
