<?xml version="1.0" standalone="no"?>
<!DOCTYPE svg PUBLIC "-//W3C//DTD SVG 20010904//EN"
 "http://www.w3.org/TR/2001/REC-SVG-20010904/DTD/svg10.dtd">
<svg version="1.0" xmlns="http://www.w3.org/2000/svg"
 width="50.000000pt" height="50.000000pt" viewBox="0 0 2048.000000 2048.000000"
 preserveAspectRatio="xMidYMid meet">

<g transform="translate(0.000000,2048.000000) scale(0.100000,-0.100000)"
fill="#3d3d3d" stroke="none">
<path d="M4465 17403 c-360 -30 -714 -204 -970 -475 -251 -267 -391 -607 -414
-1006 -9 -164 -5 -11448 5 -11527 44 -374 185 -668 443 -925 229 -228 466
-359 781 -433 l95 -22 5730 -3 c3933 -2 5771 0 5860 8 467 37 893 288 1148
675 160 244 238 477 257 773 14 212 13 11354 0 11514 -33 384 -192 727 -466
1001 -192 192 -478 342 -771 404 -72 16 -521 17 -5868 18 -3184 1 -5808 0
-5830 -2z m11580 -798 c138 -30 271 -110 378 -225 78 -84 157 -235 181 -347
14 -65 16 -634 16 -5830 0 -5094 -2 -5765 -15 -5823 -38 -164 -161 -347 -299
-444 -129 -92 -219 -123 -396 -135 -162 -12 -11265 -13 -11381 -1 -323 32
-596 290 -660 621 -16 85 -14 11491 2 11583 47 263 246 491 514 586 l70 25
2345 5 c1290 3 3882 4 5760 3 3046 -2 3423 -4 3485 -18z"/>
<path d="M7960 11558 c-718 -721 -1305 -1314 -1305 -1319 0 -13 2596 -2619
2609 -2619 6 0 134 123 284 273 l272 272 -838 840 -837 840 2848 3 2847 2 0
1510 0 1510 -390 0 -390 0 -1 -990 c-1 -544 -3 -994 -4 -1000 -1 -5 -3 -64 -4
-130 l-1 -120 -2450 0 c-1347 0 -2450 4 -2450 8 0 5 354 361 788 793 433 431
808 807 834 835 l47 50 -277 276 -277 276 -1305 -1310z"/>
</g>
</svg>
