<?xml version="1.0" standalone="no"?>
<!DOCTYPE svg PUBLIC "-//W3C//DTD SVG 20010904//EN"
 "http://www.w3.org/TR/2001/REC-SVG-20010904/DTD/svg10.dtd">
<svg version="1.0" xmlns="http://www.w3.org/2000/svg"
 width="50pt" height="50pt" viewBox="0 0 1024.000000 1024.000000"
 preserveAspectRatio="xMidYMid meet">

<g transform="translate(0.000000,1024.000000) scale(0.100000,-0.100000)"
fill="#3d3d3d" stroke="none">
<path d="M4875 8714 c-460 -37 -868 -147 -1254 -337 -728 -359 -1264 -946
-1551 -1702 -133 -350 -209 -805 -210 -1260 l0 -120 -35 -24 c-45 -30 -101
-106 -129 -174 -21 -51 -21 -63 -24 -737 -2 -424 1 -709 7 -749 25 -162 145
-294 306 -337 32 -9 109 -14 213 -14 l162 0 0 1208 c0 1324 1 1342 60 1627 82
394 254 760 519 1105 95 125 338 363 472 462 383 287 790 456 1279 533 141 22
558 31 727 16 547 -50 1024 -238 1453 -569 116 -90 315 -286 414 -407 248
-305 423 -657 525 -1055 75 -293 81 -417 81 -1778 l0 -1144 183 4 c181 3 182
3 249 35 127 60 214 171 238 305 7 37 10 303 8 755 l-3 699 -38 77 c-27 55
-53 89 -91 122 l-53 46 -6 262 c-10 411 -59 698 -177 1042 -315 913 -1046
1632 -1972 1939 -239 79 -401 116 -673 152 -106 14 -574 26 -680 18z"/>
<path d="M2853 5640 c-213 -6 -214 -6 -277 -84 l-31 -38 -3 -1102 -2 -1102 23
-45 c16 -29 40 -54 72 -74 l48 -30 241 0 241 0 47 27 c34 21 53 41 72 80 l26
52 0 1078 c0 1169 2 1117 -53 1176 -58 62 -111 70 -404 62z"/>
<path d="M7038 5620 c-45 -21 -82 -72 -97 -125 -15 -57 -15 -2134 0 -2190 7
-23 28 -57 53 -81 49 -49 103 -64 231 -64 l85 0 0 -475 0 -475 -710 0 -710 0
0 53 c0 73 -16 122 -53 164 -65 74 -57 73 -570 73 -391 0 -463 -2 -495 -15
-47 -20 -78 -50 -105 -100 -21 -37 -22 -57 -25 -292 -4 -299 3 -338 68 -397
23 -20 52 -41 66 -46 15 -6 219 -10 491 -10 454 0 468 1 510 21 51 25 86 67
104 127 l12 42 817 0 c584 0 827 3 851 11 53 18 95 54 117 101 20 43 21 59 24
1798 l3 1755 -21 40 c-12 23 -41 54 -68 73 l-48 32 -247 0 c-224 -1 -249 -3
-283 -20z"/>
</g>
</svg>
