<?xml version="1.0" standalone="no"?>
<!DOCTYPE svg PUBLIC "-//W3C//DTD SVG 20010904//EN"
 "http://www.w3.org/TR/2001/REC-SVG-20010904/DTD/svg10.dtd">
<svg version="1.0" xmlns="http://www.w3.org/2000/svg"
 width="50.000000pt" height="50.000000pt" viewBox="0 0 1920.000000 1920.000000"
 preserveAspectRatio="xMidYMid meet">

<g transform="translate(0.000000,1920.000000) scale(0.100000,-0.100000)"
fill="#3d3d3d" stroke="none">
<path d="M12370 16175 c-8 -2 -69 -13 -135 -25 -137 -25 -214 -45 -415 -110
-30 -10 -89 -28 -130 -40 -41 -13 -97 -31 -124 -41 -27 -11 -53 -19 -59 -19
-6 0 -96 -27 -201 -61 -293 -93 -403 -128 -496 -156 -47 -14 -107 -33 -135
-43 -27 -9 -84 -27 -125 -40 -41 -12 -100 -30 -130 -40 -91 -29 -176 -56 -350
-110 -91 -29 -228 -72 -305 -96 -77 -24 -178 -56 -225 -71 -47 -14 -107 -33
-135 -43 -27 -9 -84 -27 -125 -40 -105 -31 -196 -59 -260 -80 -30 -10 -116
-37 -190 -60 -74 -23 -160 -50 -190 -60 -30 -10 -116 -37 -190 -60 -74 -22
-160 -49 -190 -59 -61 -21 -147 -47 -260 -81 -41 -13 -97 -31 -125 -40 -27
-10 -88 -29 -135 -43 -47 -15 -148 -47 -225 -71 -77 -24 -214 -67 -305 -96
-160 -50 -234 -73 -350 -110 -30 -10 -84 -27 -120 -38 -286 -89 -378 -118
-470 -147 -245 -78 -340 -107 -420 -132 -47 -14 -107 -34 -134 -44 -27 -11
-54 -19 -60 -19 -7 0 -66 -17 -132 -39 -65 -21 -180 -57 -254 -80 -74 -23
-160 -50 -190 -61 -30 -10 -116 -37 -190 -60 -74 -23 -161 -50 -194 -61 -32
-11 -95 -30 -140 -44 -44 -13 -101 -31 -126 -39 -25 -9 -106 -34 -180 -57 -74
-22 -160 -49 -190 -61 -30 -11 -98 -24 -150 -29 -362 -37 -648 -150 -910 -358
-69 -54 -241 -231 -275 -281 -16 -25 -42 -61 -56 -80 -15 -19 -35 -51 -45 -70
-11 -19 -22 -37 -25 -40 -3 -3 -26 -49 -52 -102 -62 -131 -114 -303 -138 -454
-19 -121 -19 -210 -16 -3931 2 -3173 5 -3820 16 -3878 66 -338 208 -616 436
-854 241 -251 517 -404 864 -477 l114 -24 5777 0 5777 0 114 24 c347 73 623
226 864 477 227 237 363 502 432 839 16 80 18 323 20 3893 3 3721 3 3810 -16
3931 -24 152 -77 325 -139 454 -25 54 -48 99 -51 102 -4 3 -14 21 -25 40 -10
19 -30 51 -45 70 -14 19 -40 55 -56 80 -34 50 -207 228 -275 281 -82 66 -194
136 -295 187 -243 122 -449 168 -807 179 -141 4 -208 10 -208 17 0 6 -5 49
-10 96 -5 47 -14 155 -20 240 -5 85 -19 223 -30 307 -64 498 -271 930 -609
1272 -283 287 -675 513 -1066 615 -174 45 -215 49 -495 52 -151 1 -282 1 -290
-1z m575 -704 c496 -125 899 -451 1089 -881 84 -191 124 -390 146 -735 5 -83
13 -178 16 -212 l7 -63 -3954 1 c-3352 0 -3949 2 -3919 14 19 7 76 25 125 40
50 15 113 35 140 44 28 10 82 27 120 39 100 30 541 168 645 202 30 10 116 37
190 60 74 23 191 59 260 81 69 22 157 49 195 61 39 12 93 29 120 38 28 10 88
29 135 43 47 15 148 47 225 71 77 24 214 67 305 96 155 48 215 67 350 110 30
10 84 27 120 38 36 11 130 41 210 66 80 25 226 70 325 101 99 31 198 63 220
70 22 7 81 26 130 41 50 15 113 35 140 44 28 9 84 27 125 40 41 12 100 31 130
40 67 21 138 43 335 105 83 26 168 53 190 60 62 21 386 122 425 133 19 6 55
17 80 26 25 9 106 34 180 57 74 22 160 49 190 59 145 49 323 100 400 114 47 9
94 18 105 20 11 3 108 3 215 2 163 -2 210 -6 285 -25z m2376 -2597 c394 -66
693 -348 786 -744 16 -68 18 -157 21 -987 l3 -912 -38 -6 c-51 -8 -201 -42
-290 -66 -39 -10 -77 -19 -84 -19 -8 0 -43 -9 -79 -19 -36 -11 -101 -29 -145
-41 -214 -58 -602 -192 -785 -271 -90 -39 -343 -165 -432 -215 -208 -117 -386
-248 -535 -394 -237 -233 -357 -440 -413 -714 -44 -214 -6 -472 99 -686 145
-293 441 -577 836 -802 154 -88 412 -211 573 -274 34 -13 91 -35 126 -49 62
-24 347 -117 476 -155 148 -44 414 -110 600 -150 30 -6 63 -14 73 -17 17 -4
18 -47 14 -921 -4 -983 -2 -948 -55 -1098 -48 -136 -114 -237 -231 -355 -123
-123 -224 -184 -399 -242 l-97 -32 -5745 0 -5745 0 -97 32 c-175 58 -276 119
-399 242 -148 149 -221 280 -267 481 -16 70 -17 313 -17 3830 0 3573 1 3759
18 3835 43 193 125 344 262 481 141 141 304 227 505 264 90 17 366 18 5731 19
5097 1 5644 -1 5730 -15z m809 -4584 l0 -1240 -27 6 c-123 26 -337 80 -419
106 -33 10 -71 21 -85 23 -29 6 -234 70 -304 96 -145 53 -278 104 -340 132
-113 50 -366 181 -421 218 -28 19 -85 56 -125 83 -87 57 -279 247 -331 327
-185 283 -50 574 412 886 133 90 442 242 635 313 33 12 69 26 80 31 24 11 108
39 235 79 180 57 256 79 455 129 44 11 105 26 135 34 30 8 65 15 78 16 l22 1
0 -1240z"/>
</g>
</svg>
